<svg id="Layer_1" data-name="Layer 1" xmlns="http://www.w3.org/2000/svg" viewBox="0 0 236.59 105.8">
  <defs>
    <style>
      .cls-1 {
        fill: #fff;
      }
    </style>
  </defs>
  <title>B_Monogram-08</title>
  <path class="cls-1" d="M116.62,117.11a19.33,19.33,0,0,0,4.3,2c4.76,1.12,9.57,2.57,14.39,2.72,6.22.2,12.67,0,18.5-2.37a50.75,50.75,0,0,0,13.66-8.29,47.89,47.89,0,0,0,10.91-13.37A40.14,40.14,0,0,0,183,84.33a2.38,2.38,0,0,0,0-.92c-.27-1.24-3.34-1.76-4.36-2.14-1.85-.69-3.69-1.39-5.54-2.07a110.46,110.46,0,0,0-11.47-3.61c-5.76-1.41-11.59-1.89-17.47-2.52a2.23,2.23,0,0,0-1.09.07c-.88.37-1.22,1.84-1.56,2.64l-1.65,3.87c-1.1,2.52-2.21,5-3.37,7.54a115.44,115.44,0,0,1-7.78,14.29c-2,3-4,5.93-6.17,8.76C120.67,112.66,118.55,114.89,116.62,117.11Zm-16.17-54.5c-.38-.34-1.28.33-1.65.55-1.22.74-2.28,1.69-3.47,2.45-9.19,5.85-14,15.75-14.79,26.35a28.13,28.13,0,0,0,2.78,14.58c1.62,3.26,5.12,5.92,8.1,8,2.09,1.46,3.11,3.41,5.67,4a4,4,0,0,0,3.87-1.27,15.79,15.79,0,0,0,2.31-2.92c1.24-2,.67-3.59-.42-5.53A27.1,27.1,0,0,1,99.6,98.57c-.36-3.24-.5-7.71,1-10.71-2.82-1.31-4-3.77-4.2-6.83-.31-5.1,1.15-10.09,2.88-14.83.22-.58,1.51-2.9,1.28-3.43A.44.44,0,0,0,100.45,62.61ZM114.39,43c2.74-3.05,5.67-5,9-7.33,4.7-3.27,10.14-6.34,15.68-7.8a31.15,31.15,0,0,1,7.55-1.21c2.62,0,4.88.85,7.11-1,2.43-2,4.8-4.28,7.73-5.52a21.16,21.16,0,0,1,9.36-1.86A12.24,12.24,0,0,1,176,19.5a4.32,4.32,0,0,1,2.11,3.1,6.39,6.39,0,0,1,.12,2.85,1.56,1.56,0,0,1-2.61.76,1.93,1.93,0,0,1-.37-.76A6,6,0,0,1,175,24c0-.5,0-1-.46-1.36-1.68-1.12-4.16.33-5.45,1.44-2.12,1.81-3.54,4.31-5,6.62-.46.71,2.92,4.07,3.36,4.74a12.66,12.66,0,0,1,2,9.33c-.73,3.45-3.09,5.73-4.83,8.63-.14.22,4.26,1.22,4.63,1.29A22.47,22.47,0,0,1,180,59.83a20.41,20.41,0,0,1,4.57,6.87c.57,1.29,1,2.62,1.66,3.89.91,1.94.55,3.24,2.84,4.14a93.43,93.43,0,0,0,14.82,4.32,26,26,0,0,0,3.75.77,6.23,6.23,0,0,0,2.92-.92,13.3,13.3,0,0,0,4.63-4.38,8.93,8.93,0,0,1,2-2.4,2.35,2.35,0,0,1,2.87-.08c2.21,2.07-1.55,6.55-3,7.9-.48.45-.45,1,.3,1,6.11,0,13.07-1,18.29-4.39A23.84,23.84,0,0,0,239.72,73a28.51,28.51,0,0,0,3.65-4.41A8.7,8.7,0,0,1,245.53,66a2.34,2.34,0,0,1,3.1.26,2.22,2.22,0,0,1,.08,2.19,6.46,6.46,0,0,1-1.41,1.8,60.28,60.28,0,0,1-8.86,7.82,33.63,33.63,0,0,1-15.08,5.17c-4.64.52-9.32.17-14,.49-3.74.26-7.49.5-11.24.44-1.93,0-3.86-.14-5.78-.36a40.78,40.78,0,0,0-5.23-.71c.1,4.38-1.81,8.61-3.89,12.37a62.59,62.59,0,0,1-13.53,16.88c-.92.8-1.85,1.58-2.81,2.33-9.11,7.15-21,10-32.43,9.23a55.4,55.4,0,0,1-11.29-1.9,45.14,45.14,0,0,1-5.46-1.89c-1.16-.49-2.15-1.31-3.34-1.73-1.52-.55-2.15.11-3.41.9a13.8,13.8,0,0,1-3.56,1.57,16.24,16.24,0,0,1-7.53.17A32.45,32.45,0,0,1,86,113.92l-.35-.29c-8.83-7.43-9.94-20.57-6.9-31a36.33,36.33,0,0,1,8.86-15.32A50.7,50.7,0,0,1,100,58.22a14.46,14.46,0,0,0,2.89-1.84.72.72,0,0,0,.3-.61c-.07-.28-.43-.36-.72-.38a25.34,25.34,0,0,0-11.27,2c-3.82,1.5-7.63,3.31-11.73,3.89-2.63.37-5.2,1.11-7.83,1.57a45.91,45.91,0,0,1-12.82.39A45.14,45.14,0,0,0,49.19,63c-3.17.35-6.27,1.23-9.44,1.61a86.67,86.67,0,0,1-19.52.12c-1.72-.18-3.43-.41-5.14-.69a4.48,4.48,0,0,1-1.93-.62,1.64,1.64,0,0,1-.73-1.75c.29-.89,1.43-1.12,2.37-1.13a35.46,35.46,0,0,1,8.25,1.16,39.7,39.7,0,0,0,8,.84,53.9,53.9,0,0,0,6.84-.29c2.23-.24,4.95-.4,7-1.28-.35-.82-2-1-2.74-1.28l-3.08-1.24c-.82-.33-1.76-.66-1.5-1.8s1.2-1.23,2.18-1.2a12.2,12.2,0,0,1,7.41,2.62c3.27,2.62,7,.53,10.47-.53C70,53.76,83,51.09,96,51.34q3.13.06,6.27.3a8.29,8.29,0,0,0,4.43-.46m41.71-19.89c-.11-1.3-2-1.54-3.39-1.26a59.1,59.1,0,0,0-22,9.48,59.72,59.72,0,0,0-9.29,8c-2.76,2.94-7.33,7.68-.1,6.46a23.89,23.89,0,0,1,11.29.83c1.08.35,2.34,1.15,2.11,2.25-.32,1.48-2.51,1.11-3.92.56a16.85,16.85,0,0,0-8.61-1,17.57,17.57,0,0,1,4.3,14.43c3.72-.18,7.76-.49,10.51-3a16.36,16.36,0,0,0,3.27-4.9l15.47-30.76a2.45,2.45,0,0,0,.34-1.06Zm-26.26,51c1.66-3.25,6.83-9.32.15-8.43a6.76,6.76,0,0,0-3.25,1,7.21,7.21,0,0,0-1.92,3,23.79,23.79,0,0,1-4.41,7.21,11.66,11.66,0,0,1-4.54,3c-1.53.52-3.93,0-5,1.34-2,2.31.72,20,2.92,19.2m6.51,6.59h.16c1.1-.15,1.75-1.2,2.44-2a94.91,94.91,0,0,0,9-11,100.84,100.84,0,0,0,7-12.82c2.66-5.64,5.3-11.23,7.62-17-1.59,0-4.95-.66-6.19.47a5.28,5.28,0,0,0-1,1.42C125.46,85.85,120,97.82,113,108.84l-3,4.69C110.56,113.9,111.85,115.15,112.57,115.26Zm68-42.41c-.06-.23-.09-.43-.16-.62a14.59,14.59,0,0,0-4-6.21c-2.26-2-4-4.69-7-5.78-2.11-.76-4.29-1.36-6.44-2a1.91,1.91,0,0,0-2.06.73,28.26,28.26,0,0,1-14.19,7.92,2.6,2.6,0,0,0-2.31,2.44C156.59,69.15,168.54,70.77,180.53,72.85ZM101.64,85c.54-.13.76-1,1.11-1.59a24.26,24.26,0,0,1,1.78-2.51,25.23,25.23,0,0,1,6-5.4c1-.67,2.54-1.08,3.47-1.86s.84-2.13.74-3.2a22.89,22.89,0,0,0-1.41-6.78,8.17,8.17,0,0,0-4.46-4.62c-2.24-.76-3.85.88-4.79,2.75a51.29,51.29,0,0,0-4.69,14.13A15.12,15.12,0,0,0,99.17,81c.18,1.14.79,3.55,2.07,4A.63.63,0,0,0,101.64,85ZM162,35.65c-1.91,3.23-3.76,6.4-5.65,9.54s-3.83,6.31-5.73,9.44c3.11,0,6.11,0,9.1,0a1.94,1.94,0,0,0,1.22-.82,27.5,27.5,0,0,0,4.44-9.27C166.28,41.14,164.58,37.62,162,35.65ZM141.51,55.74a7.46,7.46,0,0,0,1.89,0c1.48-.16,2.87-.44,3.72-2,1.07-1.92,2.3-3.77,3.46-5.65,1.52-2.49,3.07-5,4.55-7.49s2.74-4.83,4.19-7.38A35.65,35.65,0,0,0,156,32a1.56,1.56,0,0,0-1.31.43,47.89,47.89,0,0,0-6.75,10.71C145.82,47.3,143.87,51.68,141.51,55.74ZM87.07,56c-7.54-.38-22.85,3.26-27.61,5.55A57,57,0,0,0,87.07,56Zm70.69,1.37c-1.72,0-3.44,0-5.16,0A5.86,5.86,0,0,0,148.46,59c-1.13,1.22-1.53,3.41-2.14,4.93A24.46,24.46,0,0,0,157.76,57.38ZM105,85.77c3.47.85,7.78-3.52,7.66-7.76C109.4,79.43,106,82.88,105,85.77Zm77.4-6.28c-.24-.08-.28-2.2-.66-2.6-.69-.72-2.33-1-3.27-1.25-.78-.24-9.67-2.2-9.78-1.37l0,.23ZM137.67,63.36c0,.43,3,1.23,3.4,1.18.93-.12,1.2-.73,1.55-1.47.2-.43,1.54-4.29,1.89-4.28A7.59,7.59,0,0,0,140.09,60C139.22,60.56,137.67,62.25,137.67,63.36Zm28.23-40.3c-3.16,1.9-6.38,3.51-9,6.33l3.77,1.31Zm33.58,59.86c.05-1-3.89-1.8-4.59-2-1-.27-7.29-1.64-7.29-2.09V81.3Zm-65-13.56c1.71-.09,3.15-.27,4.57-.23,1.09,0,1.62-.33,1.69-1.25L136,66.69Zm-28.38,49.09.18.34,4-1.19-2.22-1.77Z" transform="translate(-12.37 -18.22)"/>
</svg>
